<svg xmlns="http://www.w3.org/2000/svg" viewBox="0 0 451.65 562.9"><defs><style>.cls-1,.cls-5{font-size:378.91px;font-family:Gabriola;letter-spacing:-0.01em;}.cls-2,.cls-6{font-size:222.04px;font-family:AlternateGothicNo2BT-Regular, AlternateGothic2 BT;}.cls-3,.cls-7{font-size:298.59px;font-family:SegoePrint, Segoe Print;}.cls-4,.cls-9{font-size:268.67px;font-family:MS-UIGothic, MS UI Gothic;}.cls-5,.cls-6,.cls-7,.cls-8,.cls-9{fill:#fff;}</style></defs><g id="Layer_2" data-name="Layer 2"><g id="Layer_1-2" data-name="Layer 1"><text class="cls-1" transform="translate(23.06 307.35) rotate(-1.88)">T</text><text class="cls-2" transform="matrix(0.97, 0.41, -0.39, 0.92, 80.73, 263.38)">O</text><text class="cls-3" transform="matrix(0.85, -0.04, 0.04, 1, 167.92, 287.42)">P</text><rect x="253.33" y="212.42" width="15.7" height="76.86" transform="translate(-11.59 12.65) rotate(-2.71)"/><rect x="245.04" y="129.31" width="19.71" height="19.71" transform="translate(176.98 -140.6) rotate(45.81)"/><text class="cls-4" transform="matrix(0.97, 0.01, -0.01, 1, 275.24, 300.08)">C</text><polygon points="374.06 294.67 355.58 297.74 319.61 149.49 338.1 146.42 374.06 294.67"/><polygon points="353.85 143.58 369.27 146.22 357.5 196.7 342.08 194.06 353.85 143.58"/><polygon points="417.03 275.32 402.15 282.94 341.72 198.92 356.61 191.31 417.03 275.32"/><text class="cls-5" transform="translate(9.69 300.44) rotate(-1.88)">T</text><text class="cls-6" transform="matrix(0.97, 0.41, -0.39, 0.92, 67.36, 256.47)">O</text><text class="cls-7" transform="matrix(0.85, -0.04, 0.04, 1, 154.55, 280.51)">P</text><rect class="cls-8" x="239.96" y="205.51" width="15.7" height="76.86" transform="translate(-11.28 12.01) rotate(-2.71)"/><rect class="cls-8" x="231.67" y="122.4" width="19.71" height="19.71" transform="translate(167.98 -133.1) rotate(45.81)"/><text class="cls-9" transform="matrix(0.97, 0.01, -0.01, 1, 261.86, 293.17)">C</text><polygon class="cls-8" points="360.69 287.76 342.2 290.83 306.24 142.58 324.72 139.51 360.69 287.76"/><polygon class="cls-8" points="340.48 136.68 355.9 139.31 344.13 189.79 328.71 187.15 340.48 136.68"/><polygon class="cls-8" points="403.66 268.42 388.77 276.03 328.35 192.02 343.23 184.4 403.66 268.42"/></g></g></svg>