<svg id="Layer_1" data-name="Layer 1" xmlns="http://www.w3.org/2000/svg" viewBox="0 0 156.74 152.61"><defs><style>.cls-1{fill:#fff;}</style></defs><title>QR logo</title><path d="M81.45,140.68c-1.06-.71-2.09-1.45-3.11-2.23l2.13,1.65a60.08,60.08,0,0,1-10.54-10.54l1.65,2.13a61.36,61.36,0,0,1-7.74-13.17L64.9,121a57.94,57.94,0,0,1-4.05-14.66l.38,2.79a52.14,52.14,0,0,1,0-13.5l-.38,2.79A53.29,53.29,0,0,1,64.5,85.16l-1.06,2.51a55.5,55.5,0,0,1,7-11.91l-1.64,2.13a52.89,52.89,0,0,1,9.45-9.46l-2.12,1.64a48.09,48.09,0,0,1,10.27-6l-2.51,1.06a59.27,59.27,0,0,1,15-3.9L96,61.59a111.31,111.31,0,0,1,28.31-.15l-2.8-.37a56.28,56.28,0,0,1,14.39,3.73l-2.51-1.06a39.76,39.76,0,0,1,8.61,5l-2.12-1.64a40.19,40.19,0,0,1,6.8,6.87l-1.65-2.13a53.75,53.75,0,0,1,6.84,12l-1.06-2.5A61.46,61.46,0,0,1,155,96.15l-.38-2.79a42.22,42.22,0,0,1,.12,10.83l.37-2.8a32.28,32.28,0,0,1-2.12,7.9l1.06-2.51a33.71,33.71,0,0,1-4.16,7l1.64-2.13a48.9,48.9,0,0,1-8.75,8.5l2.13-1.64c-8.37,6.38-18,11.33-27.63,15.44l2.51-1.06a153.67,153.67,0,0,1-14.44,5.26,95.77,95.77,0,0,1-15.21,3.68L93,141.5a28.92,28.92,0,0,1-7,.06l2.79.37a19.37,19.37,0,0,1-4.3-1.15L87,141.84a16.71,16.71,0,0,1-3.53-2l2.13,1.65a14.14,14.14,0,0,1-2.32-2.32l1.65,2.13a14.89,14.89,0,0,1-1-1.54C81.25,134.92,74.2,133,69.53,136a10.72,10.72,0,0,0-3.77,14.37,23.19,23.19,0,0,0,8.91,8.83,30,30,0,0,0,12.45,3.51,43.74,43.74,0,0,0,12.37-1.2c3.21-.68,6.39-1.53,9.53-2.45a163.8,163.8,0,0,0,37.84-16.53c11.8-7.08,22.68-16.22,27.19-29.66,2.52-7.5,2.31-15.44,1.11-23.14a70.27,70.27,0,0,0-6.45-19.48,53.69,53.69,0,0,0-11.48-15.88,51.62,51.62,0,0,0-18.69-10.93,76,76,0,0,0-19.49-3.49,126.25,126.25,0,0,0-18.45.18c-7.21.59-14.56,1.66-21.32,4.34A62.66,62.66,0,0,0,70,48.88a67,67,0,0,0-8,5.82A63.35,63.35,0,0,0,42.44,84.53C35,108.59,44,136,62.67,152.51a80.56,80.56,0,0,0,8.18,6.31A10.51,10.51,0,0,0,86.28,147a11.56,11.56,0,0,0-4.83-6.28Z" transform="translate(-39.82 -39.66)"/><path d="M84.47,89.72a211.84,211.84,0,0,0-12.65,42.79,11.32,11.32,0,0,0,1.06,8.09,10.5,10.5,0,0,0,14.37,3.77c2.18-1.41,4.34-3.62,4.82-6.28A212.22,212.22,0,0,1,104.72,95.3c1-2.33.16-6-1.06-8.09A10.49,10.49,0,0,0,89.3,83.45l-2.13,1.64a10.49,10.49,0,0,0-2.7,4.63Z" transform="translate(-39.82 -39.66)"/><path d="M105,99.45a45.48,45.48,0,0,1,8-2.13l-2.79.37a17.71,17.71,0,0,1,4.18,0l-2.79-.38a14.38,14.38,0,0,1,3.47.94l-2.51-1a11.77,11.77,0,0,1,2.15,1.24l-2.12-1.64a10.06,10.06,0,0,1,1.73,1.72l-1.64-2.12a9.22,9.22,0,0,1,1,1.84l-1.06-2.51a9.49,9.49,0,0,1,.5,2l-.37-2.79a11,11,0,0,1,0,2.36l.37-2.79a12.77,12.77,0,0,1-.86,3l1.06-2.51a16.57,16.57,0,0,1-2.05,3.43L113,96.24a17.72,17.72,0,0,1-3.11,3.07L112,97.67c-4.79,3.57-10.66,5.26-15.45,8.82-2.17,1.61-4.19,3.49-4.83,6.27a10.53,10.53,0,0,0,1.06,8.09,209.63,209.63,0,0,0,43.09,47.67c5.21,4.19,10.56,8.2,16.11,11.92a10.5,10.5,0,0,0,15.42-11.85,11.59,11.59,0,0,0-4.82-6.28q-5.62-3.78-11-7.92l2.12,1.64a201.91,201.91,0,0,1-35.82-35.85l1.64,2.13q-4.53-5.88-8.62-12.06l-3.76,14.37c3.49-2.6,7.55-4.2,11.36-6.26a30.93,30.93,0,0,0,12-10.91,21.53,21.53,0,0,0,2.87-7.1,19.77,19.77,0,0,0-.31-9.93,20.12,20.12,0,0,0-14.24-13.1c-6.57-1.68-13.12-.23-19.39,1.88A11.17,11.17,0,0,0,93.16,84a10.69,10.69,0,0,0-1.06,8.09A10.5,10.5,0,0,0,105,99.45Z" transform="translate(-39.82 -39.66)"/><path d="M146.47,177.94a41.45,41.45,0,0,0,25.63,4.83,3.56,3.56,0,0,0,3.23-3.42,7.52,7.52,0,0,0-1.9-4.75,34.61,34.61,0,0,0-8.85-7.91,35.16,35.16,0,0,0-12.71-4.86c-1.89-.32-2.7,2.57-.8,2.89a32.78,32.78,0,0,1,17.65,9.07,18.44,18.44,0,0,1,3,3.58,3.49,3.49,0,0,1,.59,1.84c-.07.66-.65.61-1.24.69a37.51,37.51,0,0,1-11-.34A39.43,39.43,0,0,1,148,175.35c-1.7-.93-3.21,1.66-1.52,2.59Z" transform="translate(-39.82 -39.66)"/><path d="M151.84,175.79l-.18-.07-.17-.07-.52-.24c-.36-.18-.72-.37-1.07-.57s-.73-.43-1.08-.67l-.47-.32-.26-.19-.15-.11-.1-.08-.25-.2-.48-.42c-.3-.27-.59-.55-.87-.83s-.56-.59-.82-.9c-.14-.16-.27-.32-.4-.49s-.09-.11,0,0l-.23-.31a1.51,1.51,0,0,0-1.87-.61,1.46,1.46,0,0,0-.87,1.76,12.46,12.46,0,0,0,7.62,7.2,1.51,1.51,0,0,0,1.85-1,1.55,1.55,0,0,0-1.05-1.85l-.27-.1c-.2-.08.23.11,0,0l-.47-.23a7.94,7.94,0,0,1-.87-.55c-.14-.1-.06-.06,0,0l-.23-.18c-.13-.12-.26-.23-.38-.36a10.33,10.33,0,0,1-.7-.77c.21.25,0-.06-.11-.16l-.28-.43c-.09-.15-.17-.3-.25-.46a2.1,2.1,0,0,1-.13-.26s-.13-.26,0-.08,0-.1-.06-.14a2,2,0,0,0-.08-.22l-.15-.49-.12-.51c0-.08,0-.15,0-.23-.07-.38,0,.33,0-.06a1.55,1.55,0,0,0-1.5-1.5c-.74,0-1.59.67-1.5,1.5a9.72,9.72,0,0,0,6.32,8.09l.8-2.89a5.17,5.17,0,0,1-.51-.18c-.15-.06-.21-.09,0,0l-.22-.1c-.34-.16-.68-.34-1-.53s-.6-.39-.89-.59.19.16,0,0l-.18-.15a5.82,5.82,0,0,1-.45-.4c-.26-.24-.51-.5-.75-.77l-.34-.41c-.14-.17.2.28,0,0l-.14-.19q-.31-.46-.6-1l-.24-.48a2,2,0,0,1-.1-.21c0-.05-.18-.42,0-.08l-2.74,1.15a19.93,19.93,0,0,0,8.84,6.84,1.49,1.49,0,0,0,1.84-1.05,1.54,1.54,0,0,0-1-1.84Z" transform="translate(-39.82 -39.66)"/><path d="M164.16,165.62l3.87,6.13,1.81,2.85c.46.74,1.42,1.71.87,2.58s-3.41,2.69-4.09,1.48c-.87-1.54,1.39-3.13,2.38-3.86l-2.06-2.06L164.1,177a1.51,1.51,0,0,0,1.29,2.26l5-.29a1.52,1.52,0,0,0,1.3-2.26,5.68,5.68,0,0,1-.68-4c.37-1.87-2.42-2.69-2.89-.8a3.22,3.22,0,0,0,2.27,4,1.53,1.53,0,0,0,1.85-1.85l-1-6.56a14.07,14.07,0,0,0-1.3-4.87c-1.81-3.21-6-3.27-9.08-4.33a36.13,36.13,0,0,1-9.87-5.19c-2.81-2.07-6-4.72-6.57-8.35l-2.75,1.15c6.6,10.31,18,18.74,30.73,17.85a1.5,1.5,0,0,0,0-3A18.13,18.13,0,0,1,165.3,159l-.76,2.8,7.94.78-1.5-1.5a60.9,60.9,0,0,0,2,17.42c.35,1.36,2.62,1.5,2.89,0,1.07-6.09,2-12.46-.77-18.25-.69-1.44-2.72-.61-2.8.75a46.64,46.64,0,0,0,1.83,15.76,1.51,1.51,0,0,0,2.95-.4,47.65,47.65,0,0,0-.69-9.24c-.43-2.49-.72-5.78-3.86-6-1.37-.09-2.79.16-4.18.16a36.67,36.67,0,0,1-4.32-.23,38.22,38.22,0,0,1-9.12-2.22c-1.81-.67-2.59,2.23-.8,2.89a41,41,0,0,0,15.61,2.54c.67,0,2.54-.46,3,0,.27.28.35,1.43.43,1.8q.19.92.36,1.83a44.26,44.26,0,0,1,.58,8.45L177,176a44.2,44.2,0,0,1-1.72-15l-2.79.76c2.37,5,1.38,10.74.47,15.94h2.89A58.2,58.2,0,0,1,174,161.1a1.52,1.52,0,0,0-1.5-1.5l-7.94-.78a1.51,1.51,0,0,0-.75,2.79,21.74,21.74,0,0,0,8.59,2.15v-3c-11.68.82-22.08-6.9-28.14-16.36a1.51,1.51,0,0,0-2.74,1.16c.6,3.6,3.29,6.37,6,8.61a39.07,39.07,0,0,0,9.44,5.82,41.07,41.07,0,0,0,5.33,1.88c1.47.39,3.58.49,4.67,1.7s1.16,3.21,1.4,4.73l1,6.56L171.2,173c-.18,0-.22-.11-.18-.28l-2.89-.8a9,9,0,0,0,1,6.27l1.29-2.26-5,.29,1.3,2.26,2.84-4.23c.81-1.2-.84-2.95-2.05-2.06-2.23,1.66-4.67,3.89-3.84,7a3.84,3.84,0,0,0,2.29,2.66c1.61.61,3.25-.08,4.67-.86a6.76,6.76,0,0,0,2.94-2.68c.76-1.53.24-3-.6-4.39-2-3.29-4.13-6.54-6.19-9.8-1-1.63-3.63-.12-2.59,1.51Z" transform="translate(-39.82 -39.66)"/><path d="M151.43,176.28a29.22,29.22,0,0,1-9.6-7.49c-.94-1.11-3.06.08-2.51,1.46a14.34,14.34,0,0,0,10.42,8.83,1.51,1.51,0,0,0,1.15-2.74c-3.81-2.94-7.66-5.94-10.7-9.7-2.37-2.92-4.54-8.63-9.27-7.48a1.51,1.51,0,0,0-.9,2.21,59.79,59.79,0,0,0,15,15.75,1.51,1.51,0,0,0,2.05-.54,1.53,1.53,0,0,0-.54-2.05,55.73,55.73,0,0,1-13.88-14.68l-.9,2.2c1.56-.38,2.83,1.64,3.55,2.73a45.56,45.56,0,0,0,3.86,5.21,72.75,72.75,0,0,0,10.26,8.94l1.15-2.74a11.34,11.34,0,0,1-8.32-6.73l-2.5,1.46a31.4,31.4,0,0,0,10.2,8c1.73.84,3.25-1.74,1.52-2.59Z" transform="translate(-39.82 -39.66)"/><path d="M155.31,161.32a16,16,0,0,0,8.86,4.66c.44.07.89.1,1.33.16-.2,0,.4,0,.34.06.29-.07-.23-.29-.23-.28a3.4,3.4,0,0,0,0,.78c0,.24,0,.47,0,.71,0,.46,0,.93,0,1.4a55.15,55.15,0,0,1-.4,6,1.5,1.5,0,0,0,1.5,1.5,1.54,1.54,0,0,0,1.5-1.5,55.21,55.21,0,0,0,.4-6.3c0-2,.28-4.64-2.14-5.25-.81-.21-1.67-.19-2.49-.37a13.57,13.57,0,0,1-2.32-.73,13.15,13.15,0,0,1-4.29-3c-1.34-1.39-3.46.74-2.12,2.12Z" transform="translate(-39.82 -39.66)"/><path d="M74.19,159.22,80,161.75l.76-2.8h-.1l-.33-.05-.58-.09-1.22-.25c-.76-.18-1.51-.39-2.25-.64a21.47,21.47,0,0,1-4.19-1.9,1.5,1.5,0,1,0-1.52,2.59A26.87,26.87,0,0,0,80.78,162a1.49,1.49,0,0,0,1.44-1.1,1.5,1.5,0,0,0-.68-1.69l-5.84-2.53a1.55,1.55,0,0,0-2,.54,1.51,1.51,0,0,0,.54,2.05Z" transform="translate(-39.82 -39.66)"/><path d="M80.6,161.68l4.2,1.26a1.53,1.53,0,0,0,1.85-1.05A1.54,1.54,0,0,0,85.6,160l-4.2-1.25a1.5,1.5,0,1,0-.8,2.89Z" transform="translate(-39.82 -39.66)"/><path d="M80.51,162a37.13,37.13,0,0,0,14.69.89,1.52,1.52,0,0,0,1-1.85,1.55,1.55,0,0,0-1.85-1,33.48,33.48,0,0,1-13.1-.89,1.5,1.5,0,0,0-.79,2.89Z" transform="translate(-39.82 -39.66)"/><path d="M93.38,162.92l6.15-2.27-1.46-2.5-1.75,1.64a1.52,1.52,0,0,0,1.06,2.56l3.26.06-.39-2.95a19,19,0,0,1-4.7.19v3a65.94,65.94,0,0,0,30.32-7.29c1.72-.88.2-3.47-1.52-2.59a62.68,62.68,0,0,1-28.8,6.88c-2,0-1.91,2.85,0,3a22,22,0,0,0,5.49-.3c1.71-.3,1.25-2.92-.4-2.94l-3.26-.06,1.06,2.56,1.75-1.64c1-1,0-3-1.46-2.51L92.58,160c-1.8.66-1,3.56.8,2.89Z" transform="translate(-39.82 -39.66)"/><path d="M167.24,166.27a4,4,0,0,0,2.91,1,3.91,3.91,0,0,0,2.77-1.34,1.54,1.54,0,0,0,.41-1.26,1.4,1.4,0,0,0-.71-1.1l-6-2.59a1.72,1.72,0,0,0-1.16-.15,1.57,1.57,0,0,0-.89.69,1.53,1.53,0,0,0,.54,2.06l6,2.58-.3-2.35c-.09.11-.25.21-.32.33.06-.1.3-.2.06,0l-.16.09c-.27.16.22-.07.08,0l-.18.06-.23.06c-.18,0-.23,0,.1,0-.14,0-.29,0-.42,0s.07,0,.13,0-.16,0-.23,0l-.21-.07c-.27-.08.31.17.07,0l-.19-.12c-.23-.13.27.23.06.05a1.53,1.53,0,0,0-2.12,0,1.51,1.51,0,0,0,0,2.12Z" transform="translate(-39.82 -39.66)"/><path d="M159.49,160.08l11.09,1.61,2.41.36c.8.11,1.74,0,2.15.8a9.33,9.33,0,0,1,.57,2.12c.22,1,.4,2,.53,3a31.78,31.78,0,0,1-.39,10.34c-.17.82-.37,1.64-.6,2.45a6.58,6.58,0,0,1-.34,1.09c-.33.66.25.09-.21.25a8.38,8.38,0,0,1-2.13.06c-1,0-2,0-3,0-6.34,0-12.88-.68-18.73-3.28-5.42-2.4-9.64-6.49-13.56-10.82-4.38-4.85-8.52-9.94-13.9-13.75-1.58-1.11-3.08,1.49-1.51,2.59,5.25,3.72,9.26,8.84,13.55,13.56s9.25,9.18,15.42,11.65c6.65,2.66,14,3.15,21.08,3,1.47,0,3.52.28,4.74-.69s1.58-3.2,1.93-4.7a34.8,34.8,0,0,0,.69-11.33,31.08,31.08,0,0,0-1.2-6.19c-.67-2.08-2-2.73-4.06-3l-13.74-2c-1.89-.27-2.71,2.62-.8,2.9Z" transform="translate(-39.82 -39.66)"/><path d="M176.44,182l-.26-3a1.52,1.52,0,0,0-2.56-1.06,6.52,6.52,0,0,1-1.7,1.16,8.51,8.51,0,0,1-2,.59,7.1,7.1,0,0,1-3.8-.5c-.24-.12-.72-.38-.83-.46l-.21-.18c-.09-.16-.11-.18-.06-.07s0,.16,0,0c.13-.34-.09.31,0,0q.09-.24,0,0l.12-.22a6,6,0,0,1,.49-.75c.91-1.23,1.6-2.46.86-4A1.5,1.5,0,1,0,163.9,175c-.07-.19-.08-.2,0-.05,0-.22,0-.25,0-.09q0-.33,0-.09c-.06.16,0,.14,0,0a6.31,6.31,0,0,1-.52.82,7.46,7.46,0,0,0-1.16,2c-.73,2.26,1.25,3.79,3.11,4.54a10,10,0,0,0,10.44-2L173.18,179l.26,3a1.54,1.54,0,0,0,1.5,1.5,1.5,1.5,0,0,0,1.5-1.5Z" transform="translate(-39.82 -39.66)"/><path d="M160.86,156.57a82.6,82.6,0,0,1-16.13-15.51c-1.06-1.33-2.69.19-2.51,1.46.84,6,5.68,10.52,10.94,13,6.72,3.14,14.3,3.27,21.38,5.12a1.5,1.5,0,0,0,.8-2.89c-6.59-1.72-13.68-1.85-20-4.52-4.91-2.07-9.45-6-10.23-11.48l-2.5,1.46a85.1,85.1,0,0,0,16.74,16c1.56,1.14,3.06-1.46,1.51-2.59Z" transform="translate(-39.82 -39.66)"/><path d="M173.1,159.27a19.44,19.44,0,0,1,1.24,2c.16.3.32.6.46.91s.17.36.25.53.08.18,0,.05c0,.09.08.18.11.27a20.12,20.12,0,0,1,1.18,4.38,1.51,1.51,0,0,0,1.85,1,1.55,1.55,0,0,0,1-1.84,21.14,21.14,0,0,0-3.57-8.86,1.5,1.5,0,1,0-2.59,1.52Z" transform="translate(-39.82 -39.66)"/><path d="M90,85.81A42.93,42.93,0,0,0,103.85,82c1.3-.61.71-3-.76-2.79a45.63,45.63,0,0,0-13.67,3.94l1.51,2.59a32.58,32.58,0,0,1,15.93-5.23c1.92-.1,1.94-3.1,0-3a35.52,35.52,0,0,0-17.44,5.64,1.5,1.5,0,0,0,1.51,2.59,40.94,40.94,0,0,1,12.16-3.53l-.76-2.8A38.42,38.42,0,0,1,90,82.81a1.54,1.54,0,0,0-1.5,1.5,1.5,1.5,0,0,0,1.5,1.5Z" transform="translate(-39.82 -39.66)"/><path d="M116.59,119.3a89.18,89.18,0,0,0,14.85,14.79l1.82-2.36a55.71,55.71,0,0,1-12-9.9c-1.3-1.42-3.42.7-2.12,2.12a58.23,58.23,0,0,0,12.57,10.37,1.5,1.5,0,0,0,1.81-2.35,89.24,89.24,0,0,1-14.85-14.8,1.52,1.52,0,0,0-2.12,0,1.55,1.55,0,0,0,0,2.13Z" transform="translate(-39.82 -39.66)"/><path d="M117.91,115.54a113.52,113.52,0,0,0,19.48,22.09c1.45,1.26,3.58-.85,2.12-2.12a110.21,110.21,0,0,1-19-21.49c-1.07-1.59-3.67-.09-2.59,1.52Z" transform="translate(-39.82 -39.66)"/><path d="M90.4,143.29l1.48-1.75-2.5-1.46-.93,4.79A1.61,1.61,0,0,0,88.6,146a1.5,1.5,0,0,0,2.74-.36l.93-4.8a1.56,1.56,0,0,0-.69-1.69,1.53,1.53,0,0,0-1.82.24l-1.49,1.75a1.5,1.5,0,0,0,0,2.12,1.53,1.53,0,0,0,2.13,0Z" transform="translate(-39.82 -39.66)"/><path d="M93.91,122.58a79.83,79.83,0,0,0-5.73,22.74c-.19,1.92,2.81,1.91,3,0a77.13,77.13,0,0,1,5.62-21.94,1.52,1.52,0,0,0-1-1.85,1.54,1.54,0,0,0-1.84,1Z" transform="translate(-39.82 -39.66)"/><path d="M88.81,85.92a37.52,37.52,0,0,0,13.94-3.24A68.9,68.9,0,0,1,109.22,80a41.88,41.88,0,0,1,7.44-1.48c2.19-.26,4.82-.88,7-.17a11.51,11.51,0,0,1,4.71,3.73,17,17,0,0,1,3.93,11.25,17.25,17.25,0,0,1-5.89,12.34c-1.45,1.28.67,3.39,2.12,2.12a20,20,0,0,0,4-25c-2.28-3.87-6.07-7.67-10.82-7.71a50.44,50.44,0,0,0-7.74.82A34.19,34.19,0,0,0,106.1,78c-2.72,1.11-5.32,2.48-8.11,3.38a32.94,32.94,0,0,1-9.18,1.59c-1.92.06-1.93,3.06,0,3Z" transform="translate(-39.82 -39.66)"/><path d="M121.33,78.54A23.31,23.31,0,0,0,126.84,86a1.51,1.51,0,0,0,2.5-.66,6.26,6.26,0,0,0-2.52-6.84,1.51,1.51,0,0,0-2.06.53,1.55,1.55,0,0,0,.54,2.06l.17.11c-.16-.12-.19-.15-.11-.08l.26.24.21.22.13.15-.11-.14c.12,0,.31.47.37.6s.08.2.13.27l0-.08.05.14a4.91,4.91,0,0,1,.17.63l0,.15c0,.12,0,.07,0-.15a3.27,3.27,0,0,1,0,.35s0,.66,0,.66c0-.24,0-.27,0-.1l0,.09c0,.14-.06.27-.1.4l2.51-.67a20.2,20.2,0,0,1-1.54-1.53c-.25-.26-.48-.54-.72-.82l-.37-.47c.08.1.11.15,0,0l-.18-.24A22.13,22.13,0,0,1,123.92,77a1.5,1.5,0,0,0-2-.54,1.53,1.53,0,0,0-.54,2.05Z" transform="translate(-39.82 -39.66)"/><path d="M87.16,83.24c-4.68,7-7.27,15.08-9.89,23l-8.76,26.41h2.9l-.62-1.55c-.7-1.77-3.6-1-2.89.8l.61,1.55a1.52,1.52,0,0,0,2.9,0q4.29-13,8.6-25.95c2.6-7.84,5.1-15.82,9.74-22.75,1.08-1.61-1.52-3.11-2.59-1.52Z" transform="translate(-39.82 -39.66)"/><path d="M88.59,85.3c3-.69,5.79-1.83,8.7-2.69,3.11-.92,6.28-1.6,9.46-2.22,6.4-1.24,12.83-2.35,19.24-3.52,1.9-.35,1.1-3.24-.79-2.9-6.42,1.17-12.85,2.29-19.25,3.53-3.1.6-6.19,1.27-9.23,2.15s-5.89,2-8.93,2.76c-1.88.44-1.09,3.33.8,2.89Z" transform="translate(-39.82 -39.66)"/><path d="M124.75,76.22l4.82,10.24a1.5,1.5,0,0,0,2.05.54,1.54,1.54,0,0,0,.54-2l-4.82-10.24a1.5,1.5,0,1,0-2.59,1.51Z" transform="translate(-39.82 -39.66)"/><path d="M126.59,76.22a41.37,41.37,0,0,1,6.26,11.53,1.5,1.5,0,0,0,2.89-.79,43.48,43.48,0,0,0-6.56-12.25,1.55,1.55,0,0,0-2.05-.54,1.52,1.52,0,0,0-.54,2Z" transform="translate(-39.82 -39.66)"/><path d="M134.09,88.83a39.65,39.65,0,0,1-14.7,24.93l2,.54c-.2-.34-.15-.41,0-.72,1.07-1.62-1.53-3.12-2.59-1.51a3.47,3.47,0,0,0-.05,3.74,1.51,1.51,0,0,0,2.05.54A42.52,42.52,0,0,0,137,89.63c.31-1.89-2.58-2.7-2.89-.8Z" transform="translate(-39.82 -39.66)"/><path d="M192.83,67.17a1.5,1.5,0,0,0,0-3,1.5,1.5,0,0,0,0,3Z" transform="translate(-39.82 -39.66)"/><path d="M126.7,76.52a1.5,1.5,0,0,0,0-3,1.5,1.5,0,0,0,0,3Z" transform="translate(-39.82 -39.66)"/><path d="M123.59,76.81c1.31-.28,2.9-.68,4,.25a9.37,9.37,0,0,1,2.12,3.2,94.66,94.66,0,0,1,4.38,9.55,1.53,1.53,0,0,0,1.84,1A1.51,1.51,0,0,0,137,89,93.68,93.68,0,0,0,131.94,78a8.53,8.53,0,0,0-3.3-3.8c-1.86-1-3.89-.66-5.85-.23s-1.09,3.31.8,2.89Z" transform="translate(-39.82 -39.66)"/><path d="M124,74q-14.76,2.19-29.34,5.35c-2.1.45-4.5.7-6.43,1.7s-2.77,2.82-3.69,4.57a82,82,0,0,0-5.33,12.65,83.75,83.75,0,0,0-3.37,15.17c-.24,1.91,2.76,1.89,3,0A78.27,78.27,0,0,1,86.31,88.7c.77-1.55,1.59-3.94,3.09-4.92a8.32,8.32,0,0,1,2.71-.85l3.35-.74q6.81-1.48,13.66-2.74,7.81-1.44,15.67-2.61c1.91-.28,1.1-3.17-.79-2.89Z" transform="translate(-39.82 -39.66)"/><path d="M117.77,119a7.71,7.71,0,0,0,1.81,3,1.52,1.52,0,0,0,1.06.44,1.5,1.5,0,0,0,1.06-.44,1.46,1.46,0,0,0,.44-1.06,1.56,1.56,0,0,0-.44-1.06,6.77,6.77,0,0,1-.49-.56l.24.31a6.08,6.08,0,0,1-.78-1.35l.15.36c-.06-.14-.11-.27-.16-.41a1.53,1.53,0,0,0-.69-.89,1.49,1.49,0,0,0-1.15-.15,1.51,1.51,0,0,0-.9.69,1.49,1.49,0,0,0-.15,1.15Z" transform="translate(-39.82 -39.66)"/><path class="cls-1" d="M92.82,141c1.49-2.23,1.55-4.94,2.1-7.47a30.82,30.82,0,0,1,2.7-7.63l-2.79-.75a10.9,10.9,0,0,0,3.38,6.5c1.93,2.05,4,4,6,5.95a1.51,1.51,0,0,0,2.5-1.46c-1.66-5.24-6-8.73-8.73-13.38a1.5,1.5,0,0,0-2.59,1.51c2.52,4.38,6.87,7.76,8.43,12.67l2.51-1.46c-1.83-1.79-3.67-3.56-5.47-5.37-1.34-1.35-2.88-3-3.06-5-.12-1.36-2.06-2.2-2.8-.76a34,34,0,0,0-2.88,7.76c-.56,2.41-.51,5.21-1.92,7.33-1.07,1.61,1.53,3.12,2.59,1.52Z" transform="translate(-39.82 -39.66)"/><path class="cls-1" d="M103.74,100.57,113.94,98l-1.15-2.74a47.31,47.31,0,0,1-11.66,5.83l1.9,1.45a10.39,10.39,0,0,1,0-1.39,2.74,2.74,0,0,1,.27-.85.73.73,0,0,1,.36-.27c.2-.06.42-.1.63-.15l2.08-.48,8.19-1.88a1.5,1.5,0,0,0,1-1.84,1.52,1.52,0,0,0-1.84-1l-9.41,2.16c-1.45.33-2.85.67-3.66,2a7,7,0,0,0-.69,3.7,1.51,1.51,0,0,0,1.9,1.44,49.4,49.4,0,0,0,12.37-6.13,1.51,1.51,0,0,0-1.16-2.74l-10.2,2.6c-1.87.48-1.08,3.38.8,2.9Z" transform="translate(-39.82 -39.66)"/><path class="cls-1" d="M102.64,98.78c.11.4-.27.33.38.17s1.15-.23,1.72-.34l3.42-.67,7.08-1.39a1.5,1.5,0,1,0-.79-2.89l-8.67,1.7c-2.21.43-7,.75-6,4.21a1.5,1.5,0,0,0,2.89-.79Z" transform="translate(-39.82 -39.66)"/><path class="cls-1" d="M99,99.8a18.13,18.13,0,0,1,.57,3.18,1.5,1.5,0,0,0,3,0,11.67,11.67,0,0,0-.22-3.8q-.07-.34-.18-.69c-.06-.19-.06-.55-.17-.24l-.38.67.17-.13-.67.38c2.5-.86,5.14-1.45,7.69-2.14a47.75,47.75,0,0,1,7.56-1.52l-1.29-2.26a7.29,7.29,0,0,1-2.85,2.36l-4.07,2.44a34.63,34.63,0,0,1-7.92,4,1.5,1.5,0,0,0,.8,2.89c3.21-.93,6-2.74,8.9-4.45l4.4-2.63a9.12,9.12,0,0,0,3.33-3.08,1.51,1.51,0,0,0-1.3-2.26,68.63,68.63,0,0,0-11.75,2.57l-2.88.79c-1,.28-2.25.46-2.63,1.59-.32.94.23,1.87.41,2.8a8.56,8.56,0,0,1,0,2.72h3a22.54,22.54,0,0,0-.68-4,1.5,1.5,0,0,0-2.89.8Z" transform="translate(-39.82 -39.66)"/><path class="cls-1" d="M98.34,96.7a19.19,19.19,0,0,0-.7,5.74c0,.93,0,2.15.68,2.87.9.93,2.06.47,3.06,0a72,72,0,0,0,9.69-5.35,1.53,1.53,0,0,0,.53-2,1.5,1.5,0,0,0-2-.54c-1.67,1.1-3.39,2.13-5.14,3.09-.85.46-1.71.9-2.58,1.33l-1.3.63-.76.34-.15.07c-.27.07-.18.08.26,0l.66.38s.19.42.19.42,0-.38,0-.41c0-.28,0-.55,0-.83a17.42,17.42,0,0,1,0-1.77,16.33,16.33,0,0,1,.56-3.17,1.5,1.5,0,1,0-2.89-.8Z" transform="translate(-39.82 -39.66)"/><path class="cls-1" d="M100.64,98.17l15.2-2.76a1.52,1.52,0,0,0,1-1.85,1.54,1.54,0,0,0-1.85-1l-15.2,2.77a1.51,1.51,0,0,0-1,1.84,1.53,1.53,0,0,0,1.85,1Z" transform="translate(-39.82 -39.66)"/><path class="cls-1" d="M94.9,123.61q-2.52,8.08-5.32,16.09c-.64,1.82,2.26,2.61,2.89.79q2.81-8,5.32-16.08c.57-1.85-2.32-2.64-2.89-.8Z" transform="translate(-39.82 -39.66)"/><path class="cls-1" d="M192,65v0l.05-.39a.92.92,0,0,1-.08.27l.16-.36-.12.19.23-.3a1.89,1.89,0,0,1-.2.2l.3-.23a1.49,1.49,0,0,1-.3.18l.35-.16a1.33,1.33,0,0,1-.34.1l.4,0a2.17,2.17,0,0,1-.36,0l.4,0a1.86,1.86,0,0,1-.46-.13l.36.15a2.22,2.22,0,0,1-.42-.25l.3.23a3.2,3.2,0,0,1-.61-.61l.24.3a2.39,2.39,0,0,1-.31-.47l.15.36a.7.7,0,0,1-.06-.19l0,.39v-.06l0,.4a.27.27,0,0,1,0-.12l-.15.36,0,0-.24.3.05,0-.31.23,0,0-.36.15.11,0-.4,0h.12l-.4,0a.67.67,0,0,1,.24.07l-.36-.16a2.26,2.26,0,0,1,.26.16l-.31-.23a1.45,1.45,0,0,1,.22.21l-.24-.3a1.65,1.65,0,0,1,.22.36l-.15-.36a3.11,3.11,0,0,1,.11.41l-.06-.4a1.45,1.45,0,0,1,0,.36l0-.39a1.89,1.89,0,0,1-.09.34l.15-.35a1.19,1.19,0,0,1-.08.16,1.5,1.5,0,1,0,2.59,1.51l.21-.29-.23.3a5,5,0,0,1,1-1l-.31.23a6.07,6.07,0,0,1,1.13-.66l-.36.15a5.65,5.65,0,0,1,1.26-.36,1.49,1.49,0,0,0,.9-.69,1.59,1.59,0,0,0,.15-1.15,1.55,1.55,0,0,0-.69-.9,1.72,1.72,0,0,0-1.16-.15,6.77,6.77,0,0,0-4.47,3l2.59,1.51a3.05,3.05,0,0,0,0-3c-.6-1-2-1.82-3.17-1.11a1.84,1.84,0,0,0-.8,1.11,2.17,2.17,0,0,0,.23,1.44,4.34,4.34,0,0,0,.82,1.08,3.32,3.32,0,0,0,2.62,1.1,3.13,3.13,0,0,0,1.76-.75A2.53,2.53,0,0,0,195,65a1.5,1.5,0,0,0-1.5-1.5A1.52,1.52,0,0,0,192,65Z" transform="translate(-39.82 -39.66)"/><path class="cls-1" d="M169.41,154.82a9.83,9.83,0,0,0,5.85,2.3c2.2.23,4.44.18,6.65.23,1.94,0,1.93-3,0-3s-4.08,0-6.11-.18a7.2,7.2,0,0,1-4.27-1.47,1.5,1.5,0,0,0-2.12,2.12Z" transform="translate(-39.82 -39.66)"/><path class="cls-1" d="M174,157.16a1.5,1.5,0,0,0,0-3,1.5,1.5,0,0,0,0,3Z" transform="translate(-39.82 -39.66)"/><path class="cls-1" d="M174.21,157.37a1.5,1.5,0,0,0,0-3,1.5,1.5,0,0,0,0,3Z" transform="translate(-39.82 -39.66)"/><path class="cls-1" d="M175.46,157.37a1.5,1.5,0,0,0,0-3,1.5,1.5,0,0,0,0,3Z" transform="translate(-39.82 -39.66)"/><path class="cls-1" d="M177.1,155.09a8.09,8.09,0,0,1-1.86-.54l.36.16a8.53,8.53,0,0,1-1.68-1,1.49,1.49,0,0,0-1.15-.15,1.52,1.52,0,0,0-.9.69,1.54,1.54,0,0,0-.15,1.15l.15.36a1.55,1.55,0,0,0,.54.54A9.1,9.1,0,0,0,176.3,158a1.61,1.61,0,0,0,1.16-.15,1.52,1.52,0,0,0,.69-.9,1.49,1.49,0,0,0-.15-1.15,1.45,1.45,0,0,0-.9-.69Z" transform="translate(-39.82 -39.66)"/><path class="cls-1" d="M175.6,158.1a29.12,29.12,0,0,1-2.47,31.53c-1.19,1.5.92,3.64,2.12,2.12a32.21,32.21,0,0,0,2.94-35.16c-.94-1.69-3.53-.18-2.59,1.51Z" transform="translate(-39.82 -39.66)"/><path class="cls-1" d="M56.25,152.32c1.23,3.05,3.77,5,6.64,6.46,3.41,1.74,7,3.18,10.49,4.73a1.54,1.54,0,0,0,2.05-.54,1.51,1.51,0,0,0-.53-2.05c-3.28-1.46-6.61-2.84-9.85-4.4-2.27-1.1-4.91-2.53-5.91-5a1.55,1.55,0,0,0-1.84-1.05,1.51,1.51,0,0,0-1,1.85Z" transform="translate(-39.82 -39.66)"/><path class="cls-1" d="M67.6,160.47c2.19,1.58,5.19,2.39,7.76,3.13a64.19,64.19,0,0,0,8.57,1.77,162.25,162.25,0,0,0,17.34,1.23c1.93.06,1.93-2.94,0-3a157.68,157.68,0,0,1-16.54-1.12,62.76,62.76,0,0,1-7.92-1.6c-2.55-.69-5.53-1.44-7.69-3-1.57-1.13-3.07,1.47-1.52,2.59Z" transform="translate(-39.82 -39.66)"/><path class="cls-1" d="M96.9,162.82a83.66,83.66,0,0,1-34-6.91c-1.75-.76-3.28,1.82-1.52,2.59a87.32,87.32,0,0,0,35.51,7.32,1.5,1.5,0,0,0,0-3Z" transform="translate(-39.82 -39.66)"/><path d="M90,142a71.58,71.58,0,0,0,20-3.56c1.83-.6,1-3.5-.79-2.89A68.65,68.65,0,0,1,90,139c-1.92.07-1.93,3.07,0,3Z" transform="translate(-39.82 -39.66)"/><path class="cls-1" d="M91.27,141.46a66.09,66.09,0,0,0,15.44-2.36,1.51,1.51,0,0,0-.8-2.9,62.53,62.53,0,0,1-14.64,2.26c-1.93.07-1.93,3.07,0,3Z" transform="translate(-39.82 -39.66)"/><path class="cls-1" d="M154.61,142.47c.06.45,0,0,0-.09s-.09.31,0,0a2.74,2.74,0,0,0,.1-.31c0,.06-.15.28,0,.1l.12-.21a.83.83,0,0,1,.08-.12c.15-.24-.05.08-.06.07a3.36,3.36,0,0,1,.27-.28,1,1,0,0,0,.11-.1c.11-.15-.23.14-.07.05l.34-.22s.42-.26.23-.13-.05,0,0,0l.19-.07.35-.09h.15c.12,0,.24,0,.36,0,.36,0-.21-.06.05,0a3,3,0,0,1,.4.11,1,1,0,0,1,.22.07s-.25-.12,0,0l.39.22.19.13s.17.14,0,0,.15.13.19.17.24.24.35.37.24.34.09.1c.08.13.18.25.26.39a8,8,0,0,1,.44.82c-.13-.26,0,0,0,.14s.1.26.14.39a9.24,9.24,0,0,1,.21.91c0,.07,0,.28,0,0,0,.06,0,.12,0,.18s0,.33,0,.5,0-.07,0-.1a2,2,0,0,0-.05.24c0,.08-.12.24,0,0-.07.15-.06.05,0,0-.23.18.06,0,.06,0s-.31.08-.1.06,0,0-.07,0,.36,0,0,0h-.17c-.17,0,.29.08,0,0,0,0-.2-.05-.21-.07s.24.13,0,0l-.16-.1c-.32-.18.08.11-.06,0s-.28-.26-.41-.41l-.17-.2c.09.11.07.09,0,0l-.38-.54a1.5,1.5,0,1,0-2.59,1.51,7.64,7.64,0,0,0,2.09,2.29,3.66,3.66,0,0,0,3,.45,3,3,0,0,0,2.07-2.35,6.41,6.41,0,0,0-.24-2.88,7.75,7.75,0,0,0-3-4.37,5.14,5.14,0,0,0-5-.35,5.07,5.07,0,0,0-2.07,1.77,4.09,4.09,0,0,0-.6,3,1.52,1.52,0,0,0,1.85,1,1.56,1.56,0,0,0,1.05-1.85Z" transform="translate(-39.82 -39.66)"/><path class="cls-1" d="M91,141.46a1.5,1.5,0,0,0,0-3,1.5,1.5,0,0,0,0,3Z" transform="translate(-39.82 -39.66)"/><path class="cls-1" d="M91.2,140.91a1.5,1.5,0,0,0,0-3,1.5,1.5,0,0,0,0,3Z" transform="translate(-39.82 -39.66)"/><path class="cls-1" d="M105.44,138.06a1.5,1.5,0,0,0,0-3,1.5,1.5,0,0,0,0,3Z" transform="translate(-39.82 -39.66)"/><path class="cls-1" d="M105.44,138.13a1.5,1.5,0,0,0,0-3,1.5,1.5,0,0,0,0,3Z" transform="translate(-39.82 -39.66)"/><path class="cls-1" d="M106.93,136.12l-.38-.45a1.08,1.08,0,0,0-.48-.31,1.15,1.15,0,0,0-.58-.13,1.64,1.64,0,0,0-.91.32,1.52,1.52,0,0,0-.54.78,1.62,1.62,0,0,0,.16,1.16l.18.35a1.5,1.5,0,0,0,.89.69l.4.05a1.06,1.06,0,0,0,.58-.13,1.44,1.44,0,0,0,.72-.61,1.56,1.56,0,0,0,.15-1.16,12.59,12.59,0,0,0-1.28-2.82,1.52,1.52,0,0,0-.9-.69,1.5,1.5,0,0,0-1.84,1,1.56,1.56,0,0,0,.15,1.16,10.61,10.61,0,0,1,.77,1.5l-.15-.36c.13.32.25.64.35,1l2.75-1.16-.18-.35-2.36,1.82.38.45a1.5,1.5,0,0,0,1.06.44,1.54,1.54,0,0,0,1.06-.44,1.52,1.52,0,0,0,.44-1.06l-.05-.4a1.47,1.47,0,0,0-.39-.66Z" transform="translate(-39.82 -39.66)"/><path class="cls-1" d="M107.13,136.3a12.17,12.17,0,0,0-1.3-2.09,1,1,0,0,0-.38-.42,1.06,1.06,0,0,0-.51-.27,1.22,1.22,0,0,0-.6,0,1.12,1.12,0,0,0-.56.18,1.52,1.52,0,0,0-.69.9l0,.39a1.51,1.51,0,0,0,.2.76,12.17,12.17,0,0,1,1.3,2.09,1.13,1.13,0,0,0,.39.42,1,1,0,0,0,.51.27,1.12,1.12,0,0,0,.6,0,1.16,1.16,0,0,0,.56-.18,1.45,1.45,0,0,0,.68-.89l.06-.4a1.45,1.45,0,0,0-.21-.76Z" transform="translate(-39.82 -39.66)"/><path class="cls-1" d="M107,138.17a1.54,1.54,0,0,0,.24-.54,2,2,0,0,0,.08-.59,2.43,2.43,0,0,0-.09-.61c0-.15-.12-.3-.18-.44l-.06-.11a2,2,0,0,0-.18-.23c-.06-.08-.12-.17-.18-.24l-.18-.16a5.79,5.79,0,0,0-.72-.5,1.12,1.12,0,0,0-.56-.18,1.22,1.22,0,0,0-.6,0,1.26,1.26,0,0,0-.51.27,1,1,0,0,0-.38.42l-.15.36a1.55,1.55,0,0,0,0,.8l.15.35a1.4,1.4,0,0,0,.54.54,3.62,3.62,0,0,1,.41.27l-.31-.24a1.23,1.23,0,0,1,.26.25l-.24-.31a.82.82,0,0,1,.12.2l-.15-.36a1.6,1.6,0,0,1,.05.21l-.05-.39a.49.49,0,0,1,0,.17l.06-.39a.83.83,0,0,1,0,.15l.15-.36a.75.75,0,0,1-.07.12,1.12,1.12,0,0,0-.18.55,1,1,0,0,0,0,.6,1,1,0,0,0,.26.51,1.08,1.08,0,0,0,.43.39l.35.15a1.55,1.55,0,0,0,.8,0l.36-.15a1.47,1.47,0,0,0,.54-.54Z" transform="translate(-39.82 -39.66)"/><path class="cls-1" d="M107.58,137.2c0-.09,0-.19-.08-.28s-.13-.32-.2-.47l-.06-.14a4,4,0,0,0-.39-.53,1.37,1.37,0,0,0-.2-.22,1.08,1.08,0,0,0-.48-.31,1.36,1.36,0,0,0-1.16,0,1.14,1.14,0,0,0-.48.31l-.23.3a1.48,1.48,0,0,0-.21.76l0,.4a1.59,1.59,0,0,0,.39.66,2.09,2.09,0,0,1,.2.22l-.23-.3a2.08,2.08,0,0,1,.22.38l-.15-.36a1.82,1.82,0,0,1,.11.38,1.14,1.14,0,0,0,.27.51,1.21,1.21,0,0,0,.42.39,1.16,1.16,0,0,0,.56.18,1.22,1.22,0,0,0,.6,0l.36-.15a1.55,1.55,0,0,0,.54-.54l.15-.36a1.55,1.55,0,0,0,0-.8Z" transform="translate(-39.82 -39.66)"/><path class="cls-1" d="M105.44,137.64a1.5,1.5,0,0,0,0-3,1.5,1.5,0,0,0,0,3Z" transform="translate(-39.82 -39.66)"/><path class="cls-1" d="M105.65,138a1.5,1.5,0,0,0,0-3,1.5,1.5,0,0,0,0,3Z" transform="translate(-39.82 -39.66)"/></svg>